<svg xmlns="http://www.w3.org/2000/svg" viewBox="0 0 477.8 120" width="478" height="120"><title>Covered</title><g transform="translate(0 0) scale(1)" fill="none" stroke-width="12.5" stroke-linecap="round" stroke-linejoin="round"><path stroke="#0b0b0b" d="M72 17 H42 A25 25 0 0 0 17 42 V78 A25 25 0 0 0 42 103 H78 A25 25 0 0 0 103 78 V60"/><path stroke="#5fd38a" d="M40 59 L57 76 L101 30"/></g><path fill="#0b0b0b" d="M160.12099999999998 91.906Q151.779 91.906 145.3505 88.10050000000001Q138.922 84.295 135.2885 77.1785Q131.655 70.062 131.655 60.086Q131.655 50.325 135.18099999999998 43.144000000000005Q138.707 35.96300000000001 145.15699999999998 32.02850000000001Q151.607 28.09400000000001 160.293 28.09400000000001Q172.118 28.09400000000001 178.6755 33.94200000000001Q185.233 39.790000000000006 187.168 50.45400000000001L174.526 51.013000000000005Q173.451 45.12200000000001 169.882 41.789500000000004Q166.313 38.45700000000001 160.293 38.45700000000001Q155.262 38.45700000000001 151.65 41.123000000000005Q148.038 43.789 146.103 48.648Q144.168 53.507000000000005 144.168 60.086Q144.168 66.751 146.14600000000002 71.56700000000001Q148.124 76.38300000000001 151.736 78.96300000000001Q155.348 81.543 160.207 81.543Q166.7 81.543 170.269 77.93100000000001Q173.838 74.319 174.784 67.955L187.469 68.51400000000001Q186.265 75.824 182.78199999999998 81.04849999999999Q179.29899999999998 86.273 173.623 89.0895Q167.947 91.906 160.12099999999998 91.906ZM214.387 91.562Q207.464 91.562 202.2825 88.595Q197.101 85.628 194.2415 80.21000000000001Q191.382 74.792 191.382 67.525Q191.382 60.215 194.2415 54.84Q197.101 49.465 202.2825 46.4765Q207.464 43.48800000000001 214.387 43.48800000000001Q221.31 43.48800000000001 226.47 46.4765Q231.63 49.465 234.4895 54.84Q237.349 60.215 237.349 67.525Q237.349 74.792 234.4895 80.21000000000001Q231.63 85.628 226.47 88.595Q221.31 91.562 214.387 91.562ZM214.387 82.145Q219.461 82.145 222.23450000000003 78.29650000000001Q225.008 74.44800000000001 225.008 67.525Q225.008 60.645 222.23450000000003 56.775000000000006Q219.461 52.905 214.387 52.905Q209.313 52.905 206.518 56.775000000000006Q203.723 60.645 203.723 67.525Q203.723 74.44800000000001 206.518 78.29650000000001Q209.313 82.145 214.387 82.145ZM256.69899999999996 90.53 239.886 44.52H252.44199999999998L263.751 78.49000000000001L275.017 44.52H287.573L270.717 90.53ZM312.986 91.562Q306.02 91.562 300.88149999999996 88.595Q295.743 85.628 292.9265 80.21000000000001Q290.10999999999996 74.792 290.10999999999996 67.525Q290.10999999999996 60.258 292.9265 54.883Q295.743 49.508 300.83849999999995 46.498000000000005Q305.93399999999997 43.48800000000001 312.81399999999996 43.48800000000001Q319.522 43.48800000000001 324.5315 46.455000000000005Q329.541 49.422000000000004 332.27149999999995 54.96900000000001Q335.00199999999995 60.516000000000005 335.00199999999995 68.256V70.793H302.49399999999997Q302.79499999999996 76.555 305.633 79.4145Q308.471 82.274 313.15799999999996 82.274Q316.64099999999996 82.274 318.96299999999997 80.7475Q321.28499999999997 79.221 322.231 76.297L334.35699999999997 77.028Q332.508 83.822 326.8105 87.69200000000001Q321.113 91.562 312.986 91.562ZM302.49399999999997 63.139H322.70399999999995Q322.40299999999996 57.807 319.71549999999996 55.2055Q317.02799999999996 52.604000000000006 312.81399999999996 52.604000000000006Q308.59999999999997 52.604000000000006 305.84799999999996 55.334500000000006Q303.096 58.065000000000005 302.49399999999997 63.139ZM341.538 90.53V44.52H352.804L353.234 57.592000000000006L352.288 57.377Q353.363 50.583000000000006 356.22249999999997 47.551500000000004Q359.082 44.52 364.07 44.52H368.284V54.582H364.027Q360.45799999999997 54.582 358.13599999999997 55.571Q355.814 56.56 354.653 58.688500000000005Q353.492 60.81700000000001 353.492 64.343V90.53ZM395.116 91.562Q388.15 91.562 383.01149999999996 88.595Q377.873 85.628 375.05649999999997 80.21000000000001Q372.23999999999995 74.792 372.23999999999995 67.525Q372.23999999999995 60.258 375.05649999999997 54.883Q377.873 49.508 382.96849999999995 46.498000000000005Q388.06399999999996 43.48800000000001 394.94399999999996 43.48800000000001Q401.652 43.48800000000001 406.6615 46.455000000000005Q411.671 49.422000000000004 414.40149999999994 54.96900000000001Q417.13199999999995 60.516000000000005 417.13199999999995 68.256V70.793H384.62399999999997Q384.92499999999995 76.555 387.763 79.4145Q390.601 82.274 395.28799999999995 82.274Q398.77099999999996 82.274 401.09299999999996 80.7475Q403.41499999999996 79.221 404.361 76.297L416.48699999999997 77.028Q414.638 83.822 408.9405 87.69200000000001Q403.243 91.562 395.116 91.562ZM384.62399999999997 63.139H404.83399999999995Q404.53299999999996 57.807 401.84549999999996 55.2055Q399.15799999999996 52.604000000000006 394.94399999999996 52.604000000000006Q390.72999999999996 52.604000000000006 387.97799999999995 55.334500000000006Q385.226 58.065000000000005 384.62399999999997 63.139ZM440.051 91.562Q434.203 91.562 429.94599999999997 88.6165Q425.68899999999996 85.671 423.38849999999996 80.2745Q421.08799999999997 74.878 421.08799999999997 67.525Q421.08799999999997 60.172000000000004 423.40999999999997 54.77550000000001Q425.73199999999997 49.379000000000005 430.0105 46.43350000000001Q434.289 43.48800000000001 440.051 43.48800000000001Q444.90999999999997 43.48800000000001 448.522 45.487500000000004Q452.134 47.487 453.983 51.056000000000004V29.470000000000006H465.937V90.53H454.542L454.284 83.736Q452.392 87.434 448.6295 89.49799999999999Q444.86699999999996 91.562 440.051 91.562ZM443.835 82.145Q447.103 82.145 449.3605 80.46799999999999Q451.618 78.791 452.8005 75.523Q453.983 72.255 453.983 67.525Q453.983 62.709 452.8005 59.462500000000006Q451.618 56.216 449.3605 54.560500000000005Q447.103 52.905 443.835 52.905Q439.062 52.905 436.2455 56.818000000000005Q433.429 60.73100000000001 433.429 67.525Q433.429 74.19 436.267 78.16749999999999Q439.105 82.145 443.835 82.145Z"/></svg>
